<?xml version="1.0" encoding="utf-8"?>
<!-- Generator: Adobe Illustrator 25.4.1, SVG Export Plug-In . SVG Version: 6.00 Build 0)  -->
<svg version="1.0" id="Layer_1" xmlns="http://www.w3.org/2000/svg" xmlns:xlink="http://www.w3.org/1999/xlink" x="0px" y="0px"
	 viewBox="0 0 291.4 74.8" style="enable-background:new 0 0 291.4 74.8;" xml:space="preserve">
<style type="text/css">
	.st0{fill-rule:evenodd;clip-rule:evenodd;fill:#9AD2B1;}
	.st1{fill-rule:evenodd;clip-rule:evenodd;fill:#399164;}
	.st2{fill-rule:evenodd;clip-rule:evenodd;fill:#E8E624;}
	.st3{fill:#FFFFFF;}
</style>
<path class="st0" d="M69.9,54.3H36.2c0-18.6,15.1-33.6,33.6-33.6V54.3L69.9,54.3z"/>
<path class="st1" d="M23,54.3h33.6c0-18.6-15.1-33.6-33.6-33.6V54.3L23,54.3z"/>
<path class="st2" d="M36.2,54.3h20.4c0-9.5-3.9-18-10.2-24.1C40.1,36.3,36.2,44.9,36.2,54.3L36.2,54.3z"/>
<g>
	<path class="st3" d="M215.5,47.3c-0.6-0.5-1.3-0.6-2-0.6c-4.3,0-8.7,0-13,0c0-2.3-0.1-4.6,0-6.8c3.9,0,7.7,0,11.6,0
		c1,0,2-0.3,2.6-1.2c0.7-1.2,0.7-3-0.3-4c-0.7-0.7-1.7-0.8-2.6-0.8c-3.7,0-7.5,0-11.2,0c0-1.5,0-3.1,0-4.6c0-0.5,0-1.1,0.4-1.4
		c0.4-0.3,0.8-0.3,1.2-0.3c3.7,0,7.5,0,11.2,0c0.8,0,1.7-0.1,2.3-0.8c0.6-0.6,0.8-1.5,0.8-2.3c0-0.9-0.3-1.8-1.1-2.3
		c-0.6-0.5-1.5-0.6-2.3-0.6c-4.1,0-8.1,0-12.2,0c-1.7,0.1-3.4,0.5-4.7,1.6c-1.6,1.3-2.3,3.4-2.3,5.5c0,6.3,0,12.5,0,18.8
		c0,1.4,0.5,3,1.7,3.8c1.2,0.9,2.7,1.3,4.2,1.2c4.6,0,9.2,0,13.8,0c1.1,0,2.2-0.6,2.5-1.7C216.6,49.8,216.5,48.2,215.5,47.3z"/>
	<path class="st3" d="M122.6,27.5c0-1.5-0.5-3.1-1.5-4.2c-1.1-1.2-2.6-1.8-4.2-1.8c-1.5-0.1-3,0.2-4.1,1.2c-1.2,1-1.8,2.5-2.2,4
		c-0.5,2.4-1.1,4.8-1.5,7.2c-0.4,2.2-0.5,4.5-1,6.7c-0.2,0-0.3,0-0.5,0c-0.7-2.4-0.7-4.9-1.1-7.3c-0.5-2.3-0.9-4.6-1.5-6.8
		c-0.4-1.8-1.4-3.6-3.2-4.4c-1.2-0.6-2.5-0.6-3.8-0.5c-1.9,0.2-3.6,1.4-4.4,3.1c-0.6,1.2-0.6,2.5-0.6,3.8c0,7,0,14,0,21
		c0,0.8,0.1,1.6,0.7,2.2c1.3,1.4,3.7,1.4,5.1,0.1c0.6-0.5,0.8-1.3,0.8-2.1c0-2.4,0.1-4.7-0.1-7.1c-0.2-1.4-0.1-2.9-0.3-4.3
		c-0.2-3.3-0.3-6.5-0.5-9.8c0-0.4-0.1-1,0.2-1.3c0.3,0.1,0.4,0.1,0.5,0.4c0.3,0.8,0.4,1.6,0.6,2.4c0.8,3.7,1.6,7.3,2.4,11
		c0.3,1.3,0.7,2.5,1.5,3.6c0.7,0.9,1.8,1.5,3,1.5c1,0,2,0.1,3-0.1c1.7-0.5,2.8-1.9,3.3-3.5c0.4-1.4,0.7-2.9,1-4.3
		c0.6-2.7,1.2-5.4,1.8-8.1c0.2-0.9,0.3-1.7,0.6-2.6c0.1-0.1,0.4-0.1,0.6-0.1c0,1.6-0.2,3.3-0.2,4.9c-0.1,1.5-0.1,3.1-0.2,4.6
		c-0.2,1.2-0.1,2.5-0.2,3.7c-0.3,2.6-0.2,5.3-0.2,7.9c0,0.8-0.1,1.7,0.1,2.5c0.6,1.6,2.8,2.4,4.4,1.8c1.2-0.4,2.1-1.3,2.1-2.6
		C122.6,42.5,122.6,35,122.6,27.5z"/>
	<path class="st3" d="M188.4,46.9c-1.5-0.2-2.8,0.3-4.2,0.5c-1.1,0.1-2.3,0.1-3.2-0.4c-0.8-0.4-1.3-1.1-1.5-1.9
		c-0.3-0.9-0.3-1.9-0.3-2.8c0-2.4,0-4.8,0-7.2c2.8-0.1,5.7,0,8.5-0.1c0.5,0,1-0.1,1.5-0.4c1.6-1,1.6-3.7,0.1-4.7
		c-0.5-0.4-1.2-0.5-1.8-0.5c-2.8,0-5.6,0-8.3,0c0-1.8,0-3.6,0-5.3c-0.1-1.3-1.2-2.2-2.4-2.3c-1-0.1-2-0.1-2.9,0.5
		c-0.4,0.3-0.8,0.7-1,1.2c-0.1,0.5-0.1,1.1-0.1,1.6c0,5.9,0,11.9,0,17.8c0,1.5,0.2,3,0.7,4.4c0.8,2.1,2.7,3.8,4.7,4.7
		c2.3,0.9,5,1,7.5,0.7c1.3-0.2,2.9-0.5,4-1.3c0.9-0.7,0.9-1.7,0.7-2.7C190.2,47.8,189.4,47.1,188.4,46.9z"/>
	<path class="st3" d="M148,40c0-2.3-0.2-5.2-1.7-7c-1.1-1.5-2.8-2.5-4.5-3.1c-1.1-0.3-2.2-0.5-3.4-0.6c-2.8-0.1-5.6,0.1-8.3,0.8
		c-0.9,0.3-1.8,0.6-2.4,1.4c-0.3,0.4-0.3,1-0.3,1.5c0,1.2,1,2.2,2.1,2.3c1.5,0.2,3.1-0.4,4.6-0.8c1.3-0.4,2.6-0.4,3.9-0.3
		c1,0,2,0.4,2.6,1.1c0.6,0.8,0.8,1.8,0.9,2.8c-1.2-0.1-2.3-0.4-3.5-0.5c-1.2,0-2.3-0.2-3.4-0.1c-1.8,0.1-3.6,0.3-5.2,1.1
		c-1.2,0.6-2.2,1.7-2.7,2.9c-0.6,1.4-0.7,2.9-0.6,4.3c0.1,1.4,0.7,2.8,1.6,3.9c1,1.2,2.5,1.9,4,2.4c2.4,0.7,4.8,0.8,7.3,0.6
		c1.7-0.2,3.3-0.5,4.7-1.3c1.7-0.9,3.1-2.4,3.7-4.3C148.3,44.9,148,42.4,148,40z M140.6,46.9c-0.7,1.1-2.4,1.3-3.6,1.3
		c-1.3-0.1-2.8-0.2-3.8-1.1c-0.9-0.8-0.9-2.1-0.6-3.1c0.2-0.8,0.8-1.4,1.6-1.6c1.9-0.5,3.9-0.2,5.8-0.1c0.5,0,1,0.1,1.5,0.2
		C141.6,44,141.6,45.6,140.6,46.9z"/>
	<path class="st3" d="M168.6,30.3c-1.6-0.9-3.7-1.1-5.5-1.1c-2.3,0-4.7,0.3-6.7,1.4c-1.7,0.9-3,2.5-3.7,4.4
		c-0.5,1.4-0.7,2.9-0.7,4.4c0,3.5,0,6.9,0,10.4c0,0.6,0,1.2,0.4,1.7c0.6,0.9,1.9,1.3,2.9,1.3c1-0.1,2.2-0.4,2.8-1.3
		c0.3-0.5,0.4-1,0.4-1.6c0-3.5,0-6.9,0-10.4c0.1-1.3,0.1-2.6,1-3.7c0.5-0.6,1.3-0.9,2.1-1c1.1-0.1,2.2-0.1,3.3,0.3
		c1.1,0.4,2.3,0.5,3.4,0.3c1.3-0.5,1.8-2,1.7-3.3C169.9,31.3,169.3,30.7,168.6,30.3z"/>
	<path class="st3" d="M261.3,45.7c-1.5-0.2-2.8,0.7-4.3,1.2c-1.5,0.6-3,0.9-4.7,0.7c-1.1-0.1-2.3-0.7-2.9-1.6
		c-0.5-0.8-0.5-1.8-0.6-2.7c3.3,0,6.6,0,10,0c1.6-0.1,3.2-0.3,4.4-1.5c1-0.9,1.2-2.2,1.2-3.6c-0.1-1.3-0.3-2.5-0.8-3.7
		c-0.8-1.8-2.4-3.2-4.1-4.1c-2-1-4.1-1.3-6.3-1.3c-2,0-4,0.4-5.8,1.2c-1.8,0.9-3.4,2.4-4.2,4.2c-0.4,1-0.7,2.1-0.8,3.1
		c-0.2,2.2-0.2,4.4,0,6.5c0.1,1.7,0.6,3.3,1.6,4.7c1.4,1.8,3.4,3.1,5.6,3.6c1.9,0.5,3.8,0.4,5.7,0.3c2.2-0.3,4.4-0.9,6.5-1.8
		c1.2-0.6,1.8-2,1.5-3.3C263.2,46.7,262.4,45.8,261.3,45.7z M249.7,35.8c0.8-1.1,2.4-1.6,3.8-1.5c1.3,0,2.8,0.4,3.7,1.4
		c0.7,0.8,1,1.8,0.9,2.9c-3.1,0-6.1,0-9.2,0C249,37.5,249.1,36.6,249.7,35.8z"/>
	<path class="st3" d="M237.5,29.4c-0.9,0-1.8-0.1-2.5,0.4c-0.6,0.3-0.9,0.9-1.1,1.5c-1.5,4-3,7.9-4.5,11.9c-0.1,0.3-0.2,0.4-0.5,0.5
		c-0.4-1-0.7-2-1.1-3.1c-1-3-2.5-5.9-3.7-8.9c-0.3-0.7-0.6-1.4-1.3-1.9c-1-0.7-2.2-0.7-3.3-0.5c-0.8,0.2-1.7,0.7-2,1.5
		c-0.3,0.8-0.1,1.7,0.3,2.4c1.8,4,3.5,7.9,5.3,11.9c0.5,1.2,0.9,2.3,1.7,3.3c0.5,0.7,1.2,1.2,1.9,1.6c-0.4,1.3-1,2.6-1.8,3.6
		c-0.5,0.6-1.1,1-1.9,1c-1,0.1-2.4,0.2-3.2,0.9c-0.7,0.6-0.7,1.5-0.7,2.4c0,0.9,0.7,1.8,1.6,2.2c1,0.5,2.3,0.4,3.4,0.2
		c2.6-0.4,4.9-1.9,6.5-4c1.5-2,2.4-4.4,3.2-6.8c2.1-5.4,4.1-10.9,6.1-16.3c0.3-0.7,0.4-1.6,0.2-2.3
		C239.7,30.1,238.5,29.5,237.5,29.4z"/>
</g>
</svg>
